<svg width="15" height="15" viewBox="0 0 15 15" fill="none" xmlns="http://www.w3.org/2000/svg">
<path d="M13.3333 8.33333V13.3333C13.3333 13.7754 13.1577 14.1993 12.8452 14.5118C12.5326 14.8244 12.1087 15 11.6667 15H1.66667C1.22464 15 0.800716 14.8244 0.488155 14.5118C0.175595 14.1993 0 13.7754 0 13.3333V3.33333C0 2.89131 0.175595 2.46738 0.488155 2.15482C0.800716 1.84226 1.22464 1.66667 1.66667 1.66667H6.66667V3.33333H1.66667V13.3333H11.6667V8.33333H13.3333ZM8.33333 0V1.66667H12.155L5.66083 8.16083L6.83917 9.33917L13.3333 2.845V6.66667H15V0H8.33333Z" fill="#FAFAFA" fill-opacity="0.6"/>
</svg>
