<svg width="720" height="812" viewBox="0 0 720 812" fill="none" xmlns="http://www.w3.org/2000/svg">
<path d="M603.514 432.098C618.758 487.088 617.375 539.527 602.771 591.769C581.047 669.425 527.247 734.063 458.649 772.693C414.932 797.306 365.208 811.354 313.945 811.464C173.45 811.781 53.8978 724.553 15.3535 594.639L14.9043 593.108C13.9773 589.914 13.4007 587.333 13.2617 585.259C13.1228 583.185 13.4262 581.682 14.1895 580.586C14.33 580.384 14.4879 580.193 14.665 580.013C15.4448 579.237 16.5828 578.663 18.1855 578.277C19.937 577.855 22.2007 577.668 25.0645 577.669L26.3281 577.681C65.3958 578.424 104.498 578.247 143.597 577.752H143.598C148.35 577.682 152 578.358 155.06 580.035C158.118 581.712 160.642 584.42 163.088 588.515C181.411 619.21 204.362 642.117 231.772 656.443C259.184 670.77 291.025 676.498 327.101 672.88C366.044 668.976 399.357 652.998 424.68 628.099C446.351 606.803 462.174 578.976 470.671 546.59C472.131 541.095 473.334 536.091 477.817 532.584C478.118 532.352 478.434 532.127 478.765 531.909L478.766 531.908C479.789 531.233 480.723 530.445 481.62 529.649C482.525 528.847 483.382 528.05 484.29 527.316C523.176 496.241 562.098 465.164 603.514 432.098ZM229.738 5.96875C287.965 -4.21068 340.685 -0.0444087 387.683 18.3818C434.681 36.8082 475.989 69.5081 511.375 116.445H511.376C514.964 121.194 516.856 124.906 516.935 128.335C516.942 128.686 516.93 129.034 516.899 129.38C516.566 133.106 513.998 136.745 508.567 141.24V141.241C475.368 168.787 443.413 197.737 409.885 227.132C395.854 197.789 375.93 175.184 347.021 160.714H347.021C287.241 130.843 215.533 147.819 176.435 201.389C160.634 223.043 152.897 248.201 152.882 273.299C152.853 305.631 165.64 337.868 190.53 362.401L191.581 363.426C238.794 408.965 314.7 414.084 366.777 373.831C471.516 292.847 572.173 207.157 670.444 118.745C685.591 105.116 701.081 91.868 719.318 75.9082C719.318 108.511 719.285 140.218 719.287 171.461C719.289 201.012 719.323 230.147 719.444 259.232L719.5 271.265C719.512 274.918 718.711 277.764 717.271 280.22C715.822 282.692 713.709 284.798 711.058 286.94L703.32 293.187C623.404 357.775 544.58 423.699 463.275 486.574C297.675 614.65 53.886 529.986 7.04102 329.402V329.401C5.17725 321.428 3.72319 313.44 2.66406 305.459C-15.5955 167.502 84.1835 31.45 229.739 5.96973L229.738 5.96875Z" stroke="white" stroke-opacity="0.2"/>
</svg>
