<svg width="168" height="12" viewBox="0 0 168 12" fill="none" xmlns="http://www.w3.org/2000/svg">
<g opacity="0.4">
<path d="M0 9.55556V1H3.20947C3.75852 1 4.23893 1.11815 4.65071 1.35444C5.06249 1.58259 5.37738 1.90037 5.59539 2.30778C5.82146 2.71519 5.9345 3.17556 5.9345 3.68889C5.9345 4.20222 5.82146 4.66259 5.59539 5.07C5.37738 5.47741 5.06249 5.79926 4.65071 6.03556C4.23893 6.2637 3.75852 6.37778 3.20947 6.37778H1.02945V9.55556H0ZM3.14892 5.46111C3.68989 5.46111 4.11782 5.29815 4.43271 4.97222C4.7476 4.6463 4.90505 4.21852 4.90505 3.68889C4.90505 3.15926 4.7476 2.73148 4.43271 2.40556C4.11782 2.07963 3.68989 1.91667 3.14892 1.91667H1.02945V5.46111H3.14892Z" fill="#1A1A1A"/>
<path d="M9.38856 9.67778C8.8153 9.67778 8.31066 9.55148 7.87466 9.29889C7.43866 9.03815 7.0955 8.66333 6.84521 8.17444C6.60298 7.67741 6.48187 7.07852 6.48187 6.37778C6.48187 5.67704 6.60298 5.08222 6.84521 4.59333C7.0955 4.0963 7.43866 3.72148 7.87466 3.46889C8.31066 3.20815 8.8153 3.07778 9.38856 3.07778C9.96183 3.07778 10.4665 3.20815 10.9025 3.46889C11.3385 3.72148 11.6776 4.0963 11.9198 4.59333C12.1701 5.08222 12.2953 5.67704 12.2953 6.37778C12.2953 7.07852 12.1701 7.67741 11.9198 8.17444C11.6776 8.66333 11.3385 9.03815 10.9025 9.29889C10.4665 9.55148 9.96183 9.67778 9.38856 9.67778ZM9.38856 8.82222C9.98605 8.82222 10.4665 8.61037 10.8298 8.18667C11.2012 7.75482 11.3869 7.15185 11.3869 6.37778C11.3869 5.6037 11.2012 5.00481 10.8298 4.58111C10.4665 4.14926 9.98605 3.93333 9.38856 3.93333C8.79108 3.93333 8.30663 4.14926 7.93522 4.58111C7.57188 5.00481 7.39021 5.6037 7.39021 6.37778C7.39021 7.15185 7.57188 7.75482 7.93522 8.18667C8.30663 8.61037 8.79108 8.82222 9.38856 8.82222Z" fill="#1A1A1A"/>
<path d="M15.8355 9.55556H14.7213L12.9652 3.2H13.8735L15.2663 8.33333H15.3268L16.756 3.2H17.7128L19.1419 8.33333H19.2024L20.5952 3.2H21.5036L19.7474 9.55556H18.6332L17.2646 4.60556H17.2041L15.8355 9.55556Z" fill="#1A1A1A"/>
<path d="M27.8572 6.07222C27.8572 6.29222 27.837 6.49593 27.7967 6.68333H23.0854C23.1339 7.37593 23.3317 7.90556 23.6789 8.27222C24.0341 8.63889 24.4984 8.82222 25.0716 8.82222C25.7983 8.82222 26.3433 8.51667 26.7067 7.90556H27.6756C27.4656 8.47593 27.1306 8.91593 26.6703 9.22556C26.2182 9.52704 25.6853 9.67778 25.0716 9.67778C24.4984 9.67778 23.9938 9.55148 23.5577 9.29889C23.1217 9.03815 22.7786 8.66333 22.5283 8.17444C22.2861 7.67741 22.165 7.07852 22.165 6.37778C22.165 5.68519 22.2861 5.09037 22.5283 4.59333C22.7705 4.0963 23.1056 3.72148 23.5335 3.46889C23.9695 3.20815 24.4621 3.07778 25.0111 3.07778C25.6247 3.07778 26.1455 3.22852 26.5734 3.53C27.0014 3.83148 27.3203 4.21444 27.5302 4.67889C27.7482 5.13519 27.8572 5.59963 27.8572 6.07222ZM26.9368 5.82778C26.8883 5.29 26.6986 4.84185 26.3676 4.48333C26.0446 4.11667 25.5924 3.93333 25.0111 3.93333C24.4459 3.93333 24.0059 4.10444 23.691 4.44667C23.3761 4.78889 23.1823 5.24926 23.1096 5.82778H26.9368Z" fill="#1A1A1A"/>
<path d="M29.2448 9.55556V3.2H29.9715L30.0926 4.05556H30.1532C30.3308 3.75407 30.5569 3.53815 30.8314 3.40778C31.1059 3.26926 31.445 3.2 31.8487 3.2H32.5148V4.05556H31.8487C31.3643 4.05556 30.9606 4.2063 30.6376 4.50778C30.3146 4.80926 30.1532 5.18815 30.1532 5.64444V9.55556H29.2448Z" fill="#1A1A1A"/>
<path d="M38.5728 6.07222C38.5728 6.29222 38.5526 6.49593 38.5123 6.68333H33.801C33.8494 7.37593 34.0473 7.90556 34.3945 8.27222C34.7497 8.63889 35.214 8.82222 35.7872 8.82222C36.5139 8.82222 37.0589 8.51667 37.4223 7.90556H38.3912C38.1812 8.47593 37.8462 8.91593 37.3859 9.22556C36.9338 9.52704 36.4009 9.67778 35.7872 9.67778C35.214 9.67778 34.7093 9.55148 34.2733 9.29889C33.8373 9.03815 33.4942 8.66333 33.2439 8.17444C33.0017 7.67741 32.8805 7.07852 32.8805 6.37778C32.8805 5.68519 33.0017 5.09037 33.2439 4.59333C33.4861 4.0963 33.8212 3.72148 34.2491 3.46889C34.6851 3.20815 35.1776 3.07778 35.7267 3.07778C36.3403 3.07778 36.8611 3.22852 37.289 3.53C37.717 3.83148 38.0359 4.21444 38.2458 4.67889C38.4638 5.13519 38.5728 5.59963 38.5728 6.07222ZM37.6524 5.82778C37.6039 5.29 37.4142 4.84185 37.0831 4.48333C36.7602 4.11667 36.308 3.93333 35.7267 3.93333C35.1615 3.93333 34.7215 4.10444 34.4066 4.44667C34.0917 4.78889 33.8979 5.24926 33.8252 5.82778H37.6524Z" fill="#1A1A1A"/>
<path d="M42.3827 9.67778C41.8498 9.67778 41.3774 9.55148 40.9656 9.29889C40.5619 9.03815 40.243 8.65926 40.0089 8.16222C39.7747 7.66519 39.6576 7.07037 39.6576 6.37778C39.6576 5.68519 39.7747 5.09037 40.0089 4.59333C40.243 4.0963 40.5619 3.72148 40.9656 3.46889C41.3774 3.20815 41.8498 3.07778 42.3827 3.07778C42.8187 3.07778 43.2062 3.15926 43.5453 3.32222C43.8844 3.48519 44.163 3.70926 44.381 3.99444H44.4416V1H45.3499V9.55556H44.6232L44.5021 8.7H44.4416C44.2236 9.00963 43.9369 9.25 43.5817 9.42111C43.2345 9.59222 42.8348 9.67778 42.3827 9.67778ZM42.5038 8.82222C43.0932 8.82222 43.5615 8.61037 43.9087 8.18667C44.2639 7.75482 44.4416 7.15185 44.4416 6.37778C44.4416 5.59556 44.2639 4.99259 43.9087 4.56889C43.5615 4.14519 43.0932 3.93333 42.5038 3.93333C41.9144 3.93333 41.442 4.14519 41.0868 4.56889C40.7396 4.99259 40.566 5.59556 40.566 6.37778C40.566 7.15185 40.7396 7.75482 41.0868 8.18667C41.442 8.61037 41.9144 8.82222 42.5038 8.82222Z" fill="#1A1A1A"/>
<path d="M52.7931 9.67778C52.3409 9.67778 51.9372 9.59222 51.582 9.42111C51.2348 9.25 50.9522 9.00963 50.7342 8.7H50.6736L50.5525 9.55556H49.8259V1H50.7342V3.99444H50.7948C51.0128 3.70926 51.2913 3.48519 51.6304 3.32222C51.9695 3.15926 52.3571 3.07778 52.7931 3.07778C53.326 3.07778 53.7943 3.20815 54.198 3.46889C54.6098 3.72148 54.9328 4.0963 55.1669 4.59333C55.4011 5.09037 55.5181 5.68519 55.5181 6.37778C55.5181 7.07037 55.4011 7.66519 55.1669 8.16222C54.9328 8.65926 54.6098 9.03815 54.198 9.29889C53.7943 9.55148 53.326 9.67778 52.7931 9.67778ZM52.672 8.82222C53.2614 8.82222 53.7297 8.61037 54.0769 8.18667C54.4322 7.75482 54.6098 7.15185 54.6098 6.37778C54.6098 5.59556 54.4322 4.99259 54.0769 4.56889C53.7297 4.14519 53.2614 3.93333 52.672 3.93333C52.0826 3.93333 51.6102 4.14519 51.255 4.56889C50.9078 4.99259 50.7342 5.59556 50.7342 6.37778C50.7342 7.15185 50.9078 7.75482 51.255 8.18667C51.6102 8.61037 52.0826 8.82222 52.672 8.82222Z" fill="#1A1A1A"/>
<path d="M58.5483 12H57.5794L58.5483 9.55556L55.9444 3.2H56.9133L58.9964 8.27222H59.057L61.0311 3.2H62L58.5483 12Z" fill="#1A1A1A"/>
</g>
<path d="M108.75 0.271366H106.705V11H108.75V0.271366Z" fill="url(#paint0_linear_6779_14228)"/>
<path d="M122.292 4.6435C120.485 4.43392 119.748 3.96024 119.748 3.00683C119.748 2.05342 120.607 1.55066 122.104 1.55066C123.6 1.55066 124.536 2.10308 124.536 3.06619V3.1728H126.484V3.06619C126.484 1.20419 124.773 0 122.123 0C119.474 0 117.665 1.21993 117.665 3.0359C117.665 4.85187 119.063 5.86586 121.937 6.16145C123.989 6.37104 124.788 6.83866 124.788 7.82842C124.788 8.81817 123.845 9.43359 122.202 9.43359C120.558 9.43359 119.479 8.81575 119.479 7.78238V7.67577H117.473V7.78238C117.473 9.73646 119.328 10.9988 122.202 10.9988C125.075 10.9988 126.873 9.74857 126.873 7.81267C126.873 6.01002 125.418 5.00331 122.293 4.64229L122.292 4.6435Z" fill="url(#paint1_linear_6779_14228)"/>
<path d="M162.547 0.272577L162.515 0.212004H161.636L156.142 10.7868L156.131 11H158.251L159.307 8.863L162.068 3.63073L164.966 9.15859L165.861 11H168V10.834L162.547 0.272577Z" fill="url(#paint2_linear_6779_14228)"/>
<path d="M97.0946 3.69857C97.0946 1.61729 95.3439 0.271366 92.6368 0.271366H88.1019V1.79174H92.5793C94.1127 1.79174 94.9933 2.49196 94.9933 3.71311C94.9933 4.93425 94.1206 5.66476 92.5989 5.66476H88.1019V11H90.1469V7.16938H92.6159L95.4721 11H97.6546V10.7989L94.6518 6.875C96.1852 6.33954 97.0946 5.16201 97.0946 3.69857Z" fill="url(#paint3_linear_6779_14228)"/>
<path d="M137.967 8.00771H135.922V11H137.967V8.00771Z" fill="url(#paint4_linear_6779_14228)"/>
<path d="M148.102 8.00771H146.057V11H148.102V8.00771Z" fill="url(#paint5_linear_6779_14228)"/>
<path d="M147.258 0.24108L142.002 5.775L136.78 0.277423L136.746 0.24108H135.922V6.62423H137.968L137.95 4.13106L141.838 8.18579L141.872 8.22093H142.15L146.057 4.1359V6.6424H148.102V0.24108H147.258Z" fill="url(#paint6_linear_6779_14228)"/>
<path d="M74.2837 0.271366H70V11H72.045V1.79174H74.2458C75.9376 1.79174 76.949 2.56586 76.949 3.86333C76.949 5.16079 75.9389 5.93491 74.2458 5.93491H73.7407V7.46982H74.2837C77.1348 7.46982 79.0503 6.01487 79.0503 3.84879C79.0503 1.68271 77.1348 0.271366 74.2837 0.271366Z" fill="url(#paint7_linear_6779_14228)"/>
<defs>
<linearGradient id="paint0_linear_6779_14228" x1="70" y1="5.5" x2="168" y2="5.5" gradientUnits="userSpaceOnUse">
<stop stop-color="#003D31"/>
<stop offset="1" stop-color="#257A16"/>
</linearGradient>
<linearGradient id="paint1_linear_6779_14228" x1="70" y1="5.5" x2="168" y2="5.5" gradientUnits="userSpaceOnUse">
<stop stop-color="#003D31"/>
<stop offset="1" stop-color="#257A16"/>
</linearGradient>
<linearGradient id="paint2_linear_6779_14228" x1="70" y1="5.5" x2="168" y2="5.5" gradientUnits="userSpaceOnUse">
<stop stop-color="#003D31"/>
<stop offset="1" stop-color="#257A16"/>
</linearGradient>
<linearGradient id="paint3_linear_6779_14228" x1="70" y1="5.5" x2="168" y2="5.5" gradientUnits="userSpaceOnUse">
<stop stop-color="#003D31"/>
<stop offset="1" stop-color="#257A16"/>
</linearGradient>
<linearGradient id="paint4_linear_6779_14228" x1="70" y1="5.5" x2="168" y2="5.5" gradientUnits="userSpaceOnUse">
<stop stop-color="#003D31"/>
<stop offset="1" stop-color="#257A16"/>
</linearGradient>
<linearGradient id="paint5_linear_6779_14228" x1="70" y1="5.5" x2="168" y2="5.5" gradientUnits="userSpaceOnUse">
<stop stop-color="#003D31"/>
<stop offset="1" stop-color="#257A16"/>
</linearGradient>
<linearGradient id="paint6_linear_6779_14228" x1="70" y1="5.5" x2="168" y2="5.5" gradientUnits="userSpaceOnUse">
<stop stop-color="#003D31"/>
<stop offset="1" stop-color="#257A16"/>
</linearGradient>
<linearGradient id="paint7_linear_6779_14228" x1="70" y1="5.5" x2="168" y2="5.5" gradientUnits="userSpaceOnUse">
<stop stop-color="#003D31"/>
<stop offset="1" stop-color="#257A16"/>
</linearGradient>
</defs>
</svg>
